<svg xmlns="http://www.w3.org/2000/svg" width="24" height="24" viewBox="0 0 24 24" fill="none" class="icon icon-bell-ring-3d-mono">
  <defs>
    <linearGradient id="br_bell" x1="5" y1="3" x2="19" y2="20" gradientUnits="userSpaceOnUse">
      <stop offset="0" stop-color="#FFFFFF"/>
      <stop offset=".5" stop-color="#A1A1AA"/>
      <stop offset="1" stop-color="#18181B"/>
    </linearGradient>
    <filter id="br_shadow" x="1" y="1" width="22" height="22" color-interpolation-filters="sRGB" filterUnits="userSpaceOnUse">
      <feDropShadow dx="0" dy="1.2" stdDeviation="1" flood-color="#000000" flood-opacity=".22"/>
    </filter>
  </defs>
  <ellipse cx="12" cy="21.2" rx="6.6" ry="1" fill="#000" opacity=".13"/>
  <g filter="url(#br_shadow)">
    <path d="M12 4.2c3.3 0 6 2.7 6 6 0 3.4 1.1 4.7 2.4 6.1.6.6.1 1.7-.8 1.7H4.4c-.9 0-1.4-1.1-.8-1.7C4.9 14.9 6 13.6 6 10.2c0-3.3 2.7-6 6-6Z" fill="url(#br_bell)"/>
    <path d="M9.9 19.1c.3 1 1.1 1.7 2.1 1.7s1.8-.7 2.1-1.7" fill="#27272A"/>
    <path d="M4.1 7.8c.1-1.8.7-3.5 1.7-5M19.9 7.8c-.1-1.8-.7-3.5-1.7-5" stroke="#52525B" stroke-linecap="round" stroke-width="1.3"/>
    <path d="M7.7 9.4c.1-2 1.8-3.6 3.8-3.8" stroke="#FFFFFF" stroke-linecap="round" stroke-width="1" opacity=".62"/>
  </g>
</svg>
