<svg xmlns="http://www.w3.org/2000/svg" width="24" height="24" viewBox="0 0 24 24" fill="none" class="icon icon-clipboard-list-3d-mono">
  <defs>
    <linearGradient id="cl_board" x1="4" y1="3" x2="20" y2="22" gradientUnits="userSpaceOnUse">
      <stop offset="0" stop-color="#FFFFFF"/>
      <stop offset=".55" stop-color="#A3A3A3"/>
      <stop offset="1" stop-color="#18181B"/>
    </linearGradient>
    <linearGradient id="cl_clip" x1="8" y1="2" x2="16" y2="7" gradientUnits="userSpaceOnUse">
      <stop offset="0" stop-color="#F9FAFB"/>
      <stop offset="1" stop-color="#52525B"/>
    </linearGradient>
    <filter id="cl_shadow" x="2" y="1" width="20" height="23" color-interpolation-filters="sRGB" filterUnits="userSpaceOnUse">
      <feDropShadow dx="0" dy="1.2" stdDeviation="1" flood-color="#000000" flood-opacity=".22"/>
    </filter>
  </defs>
  <ellipse cx="12" cy="21.4" rx="6.9" ry="1" fill="#000" opacity=".13"/>
  <g filter="url(#cl_shadow)">
    <path d="M6.1 4.2h11.8c1.1 0 2 .9 2 2v13.3c0 1.1-.9 2-2 2H6.1c-1.1 0-2-.9-2-2V6.2c0-1.1.9-2 2-2Z" fill="url(#cl_board)"/>
    <rect x="8" y="2.2" width="8" height="4.4" rx="1.2" fill="url(#cl_clip)"/>
    <path d="M8.2 11.2h.1M8.2 16h.1M12 11.2h4.5M12 16h4.5" stroke="#111827" stroke-linecap="round" stroke-width="1.4"/>
    <path d="M6.2 5.5h3.2M9.5 3.1h4.8" stroke="#FFFFFF" stroke-linecap="round" stroke-width=".9" opacity=".62"/>
  </g>
</svg>
