<svg xmlns="http://www.w3.org/2000/svg" width="24" height="24" viewBox="0 0 24 24" fill="none" class="icon icon-file-text-3d-mono">
  <defs>
    <linearGradient id="ft_page" x1="4" y1="2" x2="20" y2="22" gradientUnits="userSpaceOnUse">
      <stop offset="0" stop-color="#FFFFFF"/>
      <stop offset=".55" stop-color="#D1D5DB"/>
      <stop offset="1" stop-color="#6B7280"/>
    </linearGradient>
    <linearGradient id="ft_fold" x1="14" y1="2" x2="20" y2="9" gradientUnits="userSpaceOnUse">
      <stop offset="0" stop-color="#F3F4F6"/>
      <stop offset="1" stop-color="#4B5563"/>
    </linearGradient>
    <filter id="ft_shadow" x="2" y="1" width="20" height="23" color-interpolation-filters="sRGB" filterUnits="userSpaceOnUse">
      <feDropShadow dx="0" dy="1.2" stdDeviation="1" flood-color="#000000" flood-opacity=".2"/>
    </filter>
  </defs>
  <ellipse cx="12" cy="21.1" rx="6.4" ry="1" fill="#000" opacity=".13"/>
  <g filter="url(#ft_shadow)">
    <path d="M6.2 2.5h7.7c.6 0 1.2.2 1.6.7l3.8 3.8c.4.4.7 1 .7 1.6v11.2c0 1-.8 1.8-1.8 1.8h-12c-1 0-1.8-.8-1.8-1.8V4.3c0-1 .8-1.8 1.8-1.8Z" fill="url(#ft_page)"/>
    <path d="M14 2.7v4.5c0 .6.5 1.1 1.1 1.1h4.5" fill="url(#ft_fold)"/>
    <path d="M14 2.7v4.5c0 .6.5 1.1 1.1 1.1h4.5" stroke="#374151" stroke-linejoin="round" stroke-width=".6" opacity=".35"/>
    <path d="M8 10.4h2.6M8 14h8M8 17.4h7.3" stroke="#111827" stroke-linecap="round" stroke-width="1.1" opacity=".72"/>
    <path d="M6.2 3.6h7.1" stroke="#FFFFFF" stroke-linecap="round" stroke-width="1" opacity=".8"/>
  </g>
</svg>
