<svg xmlns="http://www.w3.org/2000/svg" width="24" height="24" viewBox="0 0 24 24" fill="none" class="icon icon-gift-3d-mono">
  <defs>
    <linearGradient id="gf_box" x1="4" y1="7" x2="20" y2="21" gradientUnits="userSpaceOnUse">
      <stop offset="0" stop-color="#F9FAFB"/>
      <stop offset=".48" stop-color="#A3A3A3"/>
      <stop offset="1" stop-color="#18181B"/>
    </linearGradient>
    <linearGradient id="gf_ribbon" x1="9" y1="6" x2="15" y2="21" gradientUnits="userSpaceOnUse">
      <stop offset="0" stop-color="#FFFFFF"/>
      <stop offset=".5" stop-color="#E5E7EB"/>
      <stop offset="1" stop-color="#52525B"/>
    </linearGradient>
    <filter id="gf_shadow" x="2" y="1" width="20" height="22" color-interpolation-filters="sRGB" filterUnits="userSpaceOnUse">
      <feDropShadow dx="0" dy="1.2" stdDeviation="1" flood-color="#000000" flood-opacity=".22"/>
    </filter>
  </defs>
  <ellipse cx="12" cy="21" rx="7" ry="1" fill="#000" opacity=".13"/>
  <g filter="url(#gf_shadow)">
    <path d="M4.3 10.6h15.4v8.5c0 1.1-.9 2-2 2H6.3c-1.1 0-2-.9-2-2v-8.5Z" fill="url(#gf_box)"/>
    <rect x="3.2" y="7" width="17.6" height="4.1" rx="1.1" fill="url(#gf_box)"/>
    <path d="M10.6 7h2.8v14.1h-2.8z" fill="url(#gf_ribbon)"/>
    <path d="M12 7c-.8-2.5-2.1-4.5-4.2-4.5-1.4 0-1.8 1.3-1.2 2.4C7.1 6.1 8.8 7 12 7Zm0 0c.8-2.5 2.1-4.5 4.2-4.5 1.4 0 1.8 1.3 1.2 2.4C16.9 6.1 15.2 7 12 7Z" fill="#E5E7EB"/>
    <path d="M5.6 8h12.8M5.8 11.9h12.4" stroke="#FFFFFF" stroke-linecap="round" stroke-width=".8" opacity=".48"/>
  </g>
</svg>
