<svg xmlns="http://www.w3.org/2000/svg" width="24" height="24" viewBox="0 0 24 24" fill="none" class="icon icon-message-circle-3d-mono">
  <defs>
    <linearGradient id="mc_bubble" x1="3" y1="3" x2="21" y2="22" gradientUnits="userSpaceOnUse">
      <stop offset="0" stop-color="#FFFFFF"/>
      <stop offset=".5" stop-color="#A3A3A3"/>
      <stop offset="1" stop-color="#18181B"/>
    </linearGradient>
    <filter id="mc_shadow" x="1" y="2" width="22" height="22" color-interpolation-filters="sRGB" filterUnits="userSpaceOnUse">
      <feDropShadow dx="0" dy="1.2" stdDeviation="1" flood-color="#000000" flood-opacity=".22"/>
    </filter>
  </defs>
  <ellipse cx="12" cy="21.2" rx="7" ry="1" fill="#000" opacity=".13"/>
  <g filter="url(#mc_shadow)">
    <path d="M3.3 16.2c.2.4.2.8.1 1.2l-1 3c-.2.6.3 1.2.9 1l3.2-.9c.4-.1.8-.1 1.2.1 1.3.7 2.7 1 4.3 1 5.4 0 9.8-4 9.8-9.2S17.4 4 12 4 2.2 8.1 2.2 13.3c0 1 .4 2.2 1.1 2.9Z" fill="url(#mc_bubble)"/>
    <circle cx="8.2" cy="12.5" r="1.1" fill="#111827"/>
    <circle cx="12" cy="12.5" r="1.1" fill="#111827"/>
    <circle cx="15.8" cy="12.5" r="1.1" fill="#111827"/>
    <path d="M5.3 8.2c1.5-1.8 3.8-2.8 6.5-2.8" stroke="#FFFFFF" stroke-linecap="round" stroke-width="1" opacity=".58"/>
  </g>
</svg>
