<svg xmlns="http://www.w3.org/2000/svg" width="24" height="24" viewBox="0 0 24 24" fill="none" class="icon icon-shield-check-3d-mono">
  <defs>
    <linearGradient id="sc_shield" x1="4" y1="2" x2="20" y2="22" gradientUnits="userSpaceOnUse">
      <stop offset="0" stop-color="#FFFFFF"/>
      <stop offset=".5" stop-color="#9CA3AF"/>
      <stop offset="1" stop-color="#111827"/>
    </linearGradient>
    <filter id="sc_shadow" x="2" y="1" width="20" height="23" color-interpolation-filters="sRGB" filterUnits="userSpaceOnUse">
      <feDropShadow dx="0" dy="1.2" stdDeviation="1" flood-color="#000000" flood-opacity=".22"/>
    </filter>
  </defs>
  <ellipse cx="12" cy="21.4" rx="6.6" ry="1" fill="#000" opacity=".13"/>
  <g filter="url(#sc_shadow)">
    <path d="M12 2.6c1.8 1.5 4.3 2.6 6.5 2.7.8 0 1.4.6 1.4 1.4V13c0 4.7-3.2 7.1-7.4 8.5-.3.1-.7.1-1 0C7.3 20.1 4.1 17.7 4.1 13V6.7c0-.8.6-1.4 1.4-1.4 2.2-.1 4.7-1.2 6.5-2.7Z" fill="url(#sc_shield)"/>
    <path d="m8.8 12.2 2.1 2.1 4.5-4.7" stroke="#111827" stroke-linecap="round" stroke-linejoin="round" stroke-width="1.8"/>
    <path d="M6.1 6.7c1.8-.2 4-1.2 5.4-2.3" stroke="#FFFFFF" stroke-linecap="round" stroke-width="1" opacity=".58"/>
  </g>
</svg>
