<svg xmlns="http://www.w3.org/2000/svg" width="24" height="24" viewBox="0 0 24 24" fill="none" class="icon icon-wallet-cards-3d-mono">
  <defs>
    <linearGradient id="wc_wallet" x1="3" y1="3" x2="21" y2="22" gradientUnits="userSpaceOnUse">
      <stop offset="0" stop-color="#F9FAFB"/>
      <stop offset=".5" stop-color="#9CA3AF"/>
      <stop offset="1" stop-color="#111827"/>
    </linearGradient>
    <filter id="wc_shadow" x="1" y="2" width="22" height="21" color-interpolation-filters="sRGB" filterUnits="userSpaceOnUse">
      <feDropShadow dx="0" dy="1.2" stdDeviation="1" flood-color="#000000" flood-opacity=".22"/>
    </filter>
  </defs>
  <ellipse cx="12" cy="21" rx="7.4" ry="1" fill="#000" opacity=".13"/>
  <g filter="url(#wc_shadow)">
    <rect x="3.2" y="3.4" width="17.6" height="17.2" rx="2.2" fill="url(#wc_wallet)"/>
    <path d="M3.4 8.6c.2-.9 1-1.6 2-1.6h13.2c1 0 1.8.7 2 1.6" fill="#E5E7EB"/>
    <path d="M3.3 11.5h3.1c.8 0 1.5.3 2 .8l1 .9c1.5 1.4 3.7 1.4 5.2 0l1-.9c.5-.5 1.2-.8 2-.8h3.1v5.7c0 1.8-.8 3.4-2.3 3.4H5.6c-1.5 0-2.3-1.6-2.3-3.4v-5.7Z" fill="#27272A" opacity=".72"/>
    <path d="M5.3 4.5h11.1M5.2 12.7h1.3c.7 0 1.3.2 1.8.7" stroke="#FFFFFF" stroke-linecap="round" stroke-width=".9" opacity=".6"/>
  </g>
</svg>
