<svg xmlns="http://www.w3.org/2000/svg" width="24" height="24" viewBox="0 0 24 24" fill="none" class="icon icon-bus-3d">
  <defs>
    <linearGradient id="busBody" x1="3" y1="4" x2="20" y2="19" gradientUnits="userSpaceOnUse">
      <stop offset="0" stop-color="#6ED6FF"/>
      <stop offset=".52" stop-color="#2F8DFF"/>
      <stop offset="1" stop-color="#1760D8"/>
    </linearGradient>
    <linearGradient id="busSide" x1="14" y1="7" x2="22" y2="18" gradientUnits="userSpaceOnUse">
      <stop offset="0" stop-color="#3B9BFF"/>
      <stop offset="1" stop-color="#0F4DB8"/>
    </linearGradient>
    <linearGradient id="window" x1="5" y1="6" x2="18" y2="12" gradientUnits="userSpaceOnUse">
      <stop offset="0" stop-color="#F8FDFF"/>
      <stop offset="1" stop-color="#BFEAFF"/>
    </linearGradient>
    <linearGradient id="wheel" x1="5" y1="16" x2="18" y2="21" gradientUnits="userSpaceOnUse">
      <stop offset="0" stop-color="#374151"/>
      <stop offset="1" stop-color="#0F172A"/>
    </linearGradient>
    <filter id="softShadow" x="1" y="3" width="22" height="20" color-interpolation-filters="sRGB" filterUnits="userSpaceOnUse">
      <feDropShadow dx="0" dy="1.2" stdDeviation="1" flood-color="#0F172A" flood-opacity=".22"/>
    </filter>
  </defs>
  <ellipse cx="12" cy="20.2" rx="7.8" ry="1.4" fill="#0F172A" opacity=".16"/>
  <g filter="url(#softShadow)">
    <path d="M4.6 6.2c0-1.1.9-2 2-2h9.9c.8 0 1.6.5 1.9 1.3l2 4.7c.2.4.3.9.3 1.3v4.8c0 1.1-.9 2-2 2H5.4c-1.1 0-2-.9-2-2V7.4c0-.7.5-1.2 1.2-1.2Z" fill="url(#busBody)"/>
    <path d="M16.4 4.3c.8.1 1.6.6 1.9 1.4l2 4.6c.2.4.3.8.3 1.3v4.6c0 .9-.6 1.7-1.5 2V11c0-.4-.1-.8-.2-1.2l-2.5-5.5Z" fill="url(#busSide)" opacity=".92"/>
    <path d="M5.6 7.2c0-.5.4-.9.9-.9h9.3c.4 0 .8.2 1 .6l1.2 2.7c.3.6-.2 1.3-.8 1.3H6.5c-.5 0-.9-.4-.9-.9V7.2Z" fill="url(#window)"/>
    <path d="M7.7 6.3v4.5M12.5 6.3v4.5" stroke="#7CCBFF" stroke-linecap="round" stroke-width=".85"/>
    <path d="M4.6 13.1h15.9v2.9c0 .5-.4.9-.9.9H5.5c-.5 0-.9-.4-.9-.9v-2.9Z" fill="#F8C73E"/>
    <path d="M5.7 14.4h3.9M14.4 14.4h3.7" stroke="#FFEAA3" stroke-linecap="round" stroke-width="1"/>
    <circle cx="7.4" cy="18" r="2.2" fill="url(#wheel)"/>
    <circle cx="16.7" cy="18" r="2.2" fill="url(#wheel)"/>
    <circle cx="7.4" cy="18" r=".9" fill="#E5E7EB"/>
    <circle cx="16.7" cy="18" r=".9" fill="#E5E7EB"/>
    <path d="M5.6 5.4c.3-.3.6-.4 1-.4h9c.6 0 1.1.3 1.4.8" stroke="#FFFFFF" stroke-linecap="round" stroke-width="1" opacity=".55"/>
  </g>
</svg>
