<svg xmlns="http://www.w3.org/2000/svg" width="24" height="24" viewBox="0 0 24 24" fill="none" class="icon icon-clapperboard-3d">
  <defs>
    <linearGradient id="boardBody" x1="3" y1="7" x2="20" y2="21" gradientUnits="userSpaceOnUse">
      <stop offset="0" stop-color="#475569"/>
      <stop offset=".55" stop-color="#1F2937"/>
      <stop offset="1" stop-color="#0F172A"/>
    </linearGradient>
    <linearGradient id="slateTop" x1="2" y1="3" x2="20" y2="11" gradientUnits="userSpaceOnUse">
      <stop offset="0" stop-color="#F8FAFC"/>
      <stop offset=".55" stop-color="#CBD5E1"/>
      <stop offset="1" stop-color="#64748B"/>
    </linearGradient>
    <filter id="softShadow" x="1" y="2" width="22" height="21" color-interpolation-filters="sRGB" filterUnits="userSpaceOnUse">
      <feDropShadow dx="0" dy="1.2" stdDeviation="1" flood-color="#0F172A" flood-opacity=".24"/>
    </filter>
  </defs>
  <ellipse cx="12" cy="20.7" rx="7.6" ry="1.2" fill="#0F172A" opacity=".15"/>
  <g filter="url(#softShadow)">
    <path d="M3.2 10.5h17.6v8.1c0 1.2-1 2.2-2.2 2.2H5.4c-1.2 0-2.2-1-2.2-2.2v-8.1Z" fill="url(#boardBody)"/>
    <path d="M4.8 13.2h14.4M4.8 16.4h10.7" stroke="#94A3B8" stroke-linecap="round" stroke-width="1" opacity=".45"/>
    <path d="M3.5 6.4 17.1 2.5c1.1-.3 2.2.3 2.6 1.4l.7 2.2L3.4 11l-.8-2.4c-.3-.9.1-1.9.9-2.2Z" fill="url(#slateTop)"/>
    <path d="m6.5 5.5 3.1 4.1M12.3 3.9l3.1 4.1" stroke="#1E293B" stroke-linecap="round" stroke-width="1.15" opacity=".72"/>
    <path d="M4.1 6.4 17 2.8" stroke="#FFFFFF" stroke-linecap="round" stroke-width=".9" opacity=".6"/>
    <path d="M4.8 11.8h14.4" stroke="#FFFFFF" stroke-linecap="round" stroke-width=".8" opacity=".22"/>
  </g>
</svg>
