<svg xmlns="http://www.w3.org/2000/svg" width="24" height="24" viewBox="0 0 24 24" fill="none" class="icon icon-coffee-3d">
  <defs>
    <linearGradient id="cup" x1="4" y1="7" x2="17" y2="21" gradientUnits="userSpaceOnUse">
      <stop offset="0" stop-color="#FFFFFF"/>
      <stop offset=".58" stop-color="#E2E8F0"/>
      <stop offset="1" stop-color="#94A3B8"/>
    </linearGradient>
    <linearGradient id="coffee" x1="4" y1="8" x2="16" y2="13" gradientUnits="userSpaceOnUse">
      <stop offset="0" stop-color="#A16207"/>
      <stop offset="1" stop-color="#451A03"/>
    </linearGradient>
    <filter id="softShadow" x="1" y="1" width="22" height="22" color-interpolation-filters="sRGB" filterUnits="userSpaceOnUse">
      <feDropShadow dx="0" dy="1.2" stdDeviation="1" flood-color="#0F172A" flood-opacity=".18"/>
    </filter>
  </defs>
  <ellipse cx="10.8" cy="20.7" rx="7.5" ry="1.2" fill="#0F172A" opacity=".14"/>
  <g filter="url(#softShadow)">
    <path d="M5.1 8.1h10.8c.7 0 1.2.5 1.2 1.2v6.6c0 2.8-2.3 5.1-5.1 5.1H8.9c-2.8 0-5.1-2.3-5.1-5.1V9.3c0-.7.6-1.2 1.3-1.2Z" fill="url(#cup)"/>
    <path d="M5.1 8.1h10.8c.6 0 1.1.5 1.1 1.1v.8c0 1.1-2.9 2-6.6 2s-6.6-.9-6.6-2v-.7c0-.7.6-1.2 1.3-1.2Z" fill="url(#coffee)"/>
    <path d="M17 10.6h1.2c1.8 0 3.2 1.4 3.2 3.2S20 17 18.2 17H17v-2.1h1.1c.6 0 1.1-.5 1.1-1.1s-.5-1.1-1.1-1.1H17v-2.1Z" fill="#CBD5E1"/>
    <path d="M7 4.4c-.6-.8-.4-1.6.2-2.2M10.8 4.4c-.6-.8-.4-1.6.2-2.2M14.5 4.4c-.6-.8-.4-1.6.2-2.2" stroke="#94A3B8" stroke-linecap="round" stroke-width="1.2" opacity=".8"/>
    <path d="M5.5 9.6c1 .8 8.6.8 10.6 0" stroke="#FDE68A" stroke-linecap="round" stroke-width=".8" opacity=".7"/>
    <path d="M6 8.8c.2-.2.5-.3.8-.3h7.9" stroke="#FFFFFF" stroke-linecap="round" stroke-width="1" opacity=".8"/>
  </g>
</svg>
