<svg xmlns="http://www.w3.org/2000/svg" width="24" height="24" viewBox="0 0 24 24" fill="none" class="icon icon-fuel-3d">
  <defs>
    <linearGradient id="pump" x1="3" y1="3" x2="15" y2="21" gradientUnits="userSpaceOnUse">
      <stop offset="0" stop-color="#34D399"/>
      <stop offset=".54" stop-color="#10B981"/>
      <stop offset="1" stop-color="#047857"/>
    </linearGradient>
    <linearGradient id="screen" x1="5" y1="6" x2="13" y2="11" gradientUnits="userSpaceOnUse">
      <stop offset="0" stop-color="#F8FDFF"/>
      <stop offset="1" stop-color="#BAE6FD"/>
    </linearGradient>
    <filter id="softShadow" x="1" y="2" width="22" height="21" color-interpolation-filters="sRGB" filterUnits="userSpaceOnUse">
      <feDropShadow dx="0" dy="1.2" stdDeviation="1" flood-color="#0F172A" flood-opacity=".2"/>
    </filter>
  </defs>
  <ellipse cx="11.5" cy="21" rx="8.5" ry="1.1" fill="#0F172A" opacity=".14"/>
  <g filter="url(#softShadow)">
    <path d="M4.9 3.3h7c1.1 0 2 .9 2 2v15.2H3.4V4.8c0-.8.7-1.5 1.5-1.5Z" fill="url(#pump)"/>
    <path d="M5.5 6.1h6.4v5.1H5.5z" fill="url(#screen)" rx=".8"/>
    <path d="M4 20.5h11" stroke="#0F766E" stroke-linecap="round" stroke-width="1.6"/>
    <path d="M14 7.6 17.6 11c.4.4.6.9.6 1.4v4.7c0 .7.6 1.3 1.3 1.3s1.3-.6 1.3-1.3v-5.9" stroke="#0F766E" stroke-linecap="round" stroke-linejoin="round" stroke-width="2"/>
    <path d="m17.4 5.3 3.2 3.4c.5.5.7 1.1.7 1.8v.8" stroke="#10B981" stroke-linecap="round" stroke-linejoin="round" stroke-width="1.5"/>
    <path d="M14 13.4h2.2c1.1 0 2 .9 2 2v.9" stroke="#065F46" stroke-linecap="round" stroke-width="1.4"/>
    <path d="M5 4.4c.3-.3.6-.4 1-.4h5.5" stroke="#FFFFFF" stroke-linecap="round" stroke-width="1" opacity=".58"/>
    <circle cx="11.7" cy="15.4" r=".9" fill="#FBBF24"/>
  </g>
</svg>
