<svg xmlns="http://www.w3.org/2000/svg" width="24" height="24" viewBox="0 0 24 24" fill="none" class="icon icon-graduation-cap-3d">
  <defs>
    <linearGradient id="capTop" x1="3" y1="5" x2="20" y2="15" gradientUnits="userSpaceOnUse">
      <stop offset="0" stop-color="#4F46E5"/>
      <stop offset=".55" stop-color="#2563EB"/>
      <stop offset="1" stop-color="#1E3A8A"/>
    </linearGradient>
    <linearGradient id="capBand" x1="6" y1="12" x2="18" y2="20" gradientUnits="userSpaceOnUse">
      <stop offset="0" stop-color="#60A5FA"/>
      <stop offset="1" stop-color="#1D4ED8"/>
    </linearGradient>
    <filter id="softShadow" x="1" y="4" width="22" height="18" color-interpolation-filters="sRGB" filterUnits="userSpaceOnUse">
      <feDropShadow dx="0" dy="1.2" stdDeviation="1" flood-color="#0F172A" flood-opacity=".22"/>
    </filter>
  </defs>
  <ellipse cx="12" cy="20.4" rx="7.2" ry="1.1" fill="#0F172A" opacity=".14"/>
  <g filter="url(#softShadow)">
    <path d="M3 9.4 11 5.7c.6-.3 1.3-.3 1.9 0l8.1 3.7c.8.4.8 1.5 0 1.9L13 15c-.6.3-1.3.3-1.9 0L3 11.3c-.8-.4-.8-1.5 0-1.9Z" fill="url(#capTop)"/>
    <path d="M6.4 12.8v3.1c0 1.7 2.5 3.1 5.6 3.1s5.6-1.4 5.6-3.1v-3.1L13 15c-.6.3-1.3.3-1.9 0l-4.7-2.2Z" fill="url(#capBand)"/>
    <path d="M12 6.1 20.4 10" stroke="#FFFFFF" stroke-linecap="round" stroke-width=".9" opacity=".45"/>
    <path d="M20.9 10.6v5.8" stroke="#1E3A8A" stroke-linecap="round" stroke-width="1.4"/>
    <circle cx="20.9" cy="17.4" r="1.1" fill="#FBBF24"/>
    <path d="M7.4 16c.7 1 2.5 1.7 4.6 1.7 2 0 3.8-.7 4.5-1.7" stroke="#93C5FD" stroke-linecap="round" stroke-width=".9" opacity=".75"/>
  </g>
</svg>
