<svg xmlns="http://www.w3.org/2000/svg" width="24" height="24" viewBox="0 0 24 24" fill="none" class="icon icon-house-3d">
  <defs>
    <linearGradient id="wall" x1="5" y1="9" x2="19" y2="21" gradientUnits="userSpaceOnUse">
      <stop offset="0" stop-color="#FFF7ED"/>
      <stop offset=".58" stop-color="#FED7AA"/>
      <stop offset="1" stop-color="#FB923C"/>
    </linearGradient>
    <linearGradient id="roof" x1="4" y1="3" x2="20" y2="13" gradientUnits="userSpaceOnUse">
      <stop offset="0" stop-color="#F87171"/>
      <stop offset=".55" stop-color="#EF4444"/>
      <stop offset="1" stop-color="#B91C1C"/>
    </linearGradient>
    <filter id="softShadow" x="1" y="2" width="22" height="21" color-interpolation-filters="sRGB" filterUnits="userSpaceOnUse">
      <feDropShadow dx="0" dy="1.2" stdDeviation="1" flood-color="#0F172A" flood-opacity=".2"/>
    </filter>
  </defs>
  <ellipse cx="12" cy="21" rx="7.6" ry="1.1" fill="#0F172A" opacity=".14"/>
  <g filter="url(#softShadow)">
    <path d="M5.1 10.4 12 4.6l6.9 5.8v8.2c0 1.2-1 2.2-2.2 2.2H7.3c-1.2 0-2.2-1-2.2-2.2v-8.2Z" fill="url(#wall)"/>
    <path d="M3.5 10.2 11 3.8c.6-.5 1.5-.5 2.1 0l7.4 6.4c.5.4.5 1.1.1 1.6-.4.5-1.1.5-1.6.1L12 6 5 11.9c-.5.4-1.2.3-1.6-.1-.4-.5-.3-1.2.1-1.6Z" fill="url(#roof)"/>
    <path d="M10 14.1c0-.6.5-1.1 1.1-1.1h1.8c.6 0 1.1.5 1.1 1.1v6.7h-4v-6.7Z" fill="#7C2D12"/>
    <path d="M6.8 12.3h2.8v2.7H6.8zM14.4 12.3h2.8v2.7h-2.8z" fill="#BAE6FD"/>
    <path d="M5.9 10.2 12 5.1" stroke="#FFFFFF" stroke-linecap="round" stroke-width="1" opacity=".55"/>
    <circle cx="13.1" cy="16.5" r=".35" fill="#FDE68A"/>
  </g>
</svg>
