<svg xmlns="http://www.w3.org/2000/svg" width="24" height="24" viewBox="0 0 24 24" fill="none" class="icon icon-plane-3d">
  <defs>
    <linearGradient id="planeBody" x1="4" y1="4" x2="20" y2="20" gradientUnits="userSpaceOnUse">
      <stop offset="0" stop-color="#FFFFFF"/>
      <stop offset=".5" stop-color="#93C5FD"/>
      <stop offset="1" stop-color="#2563EB"/>
    </linearGradient>
    <linearGradient id="planeAccent" x1="8" y1="10" x2="18" y2="20" gradientUnits="userSpaceOnUse">
      <stop offset="0" stop-color="#60A5FA"/>
      <stop offset="1" stop-color="#1D4ED8"/>
    </linearGradient>
    <filter id="softShadow" x="1" y="2" width="22" height="21" color-interpolation-filters="sRGB" filterUnits="userSpaceOnUse">
      <feDropShadow dx="0" dy="1.2" stdDeviation="1" flood-color="#0F172A" flood-opacity=".2"/>
    </filter>
  </defs>
  <ellipse cx="12" cy="20.7" rx="7" ry="1.1" fill="#0F172A" opacity=".13"/>
  <g filter="url(#softShadow)">
    <path d="M20.9 3.1c.7.7.1 3-1.4 4.5L16 11.1l1.8 8c.1.5-.1 1-.6 1.3l-.5.3c-.5.2-1.1.1-1.4-.4l-3.5-5.1-3.1 2.1v2.8l-1.1 1.1-1.9-3-3-1.9 1.1-1.1h2.8l2.1-3.1-5.1-3.5c-.5-.3-.6-.9-.4-1.4l.3-.5c.3-.5.8-.7 1.3-.6l8 1.8 3.5-3.5c1.6-1.4 3.8-2 4.6-1.3Z" fill="url(#planeBody)"/>
    <path d="m11.8 15.2 3.5 5.1c.3.5.9.6 1.4.4l.5-.3c.5-.3.7-.8.6-1.3l-1.8-8-4.2 4.1Z" fill="url(#planeAccent)" opacity=".78"/>
    <path d="M13 7.9 4.9 6.1c-.5-.1-1 .1-1.3.6l-.3.5c-.2.4-.1.9.2 1.2l6.4 2.8L13 7.9Z" fill="#DBEAFE"/>
    <path d="M16.4 4.4c1.1-1 2.6-1.5 3.5-1.4" stroke="#FFFFFF" stroke-linecap="round" stroke-width=".95" opacity=".72"/>
    <path d="M9.8 12.1 16 6" stroke="#1D4ED8" stroke-linecap="round" stroke-width=".8" opacity=".42"/>
  </g>
</svg>
