<svg xmlns="http://www.w3.org/2000/svg" width="24" height="24" viewBox="0 0 24 24" fill="none" class="icon icon-shopping-bag-3d">
  <defs>
    <linearGradient id="bag" x1="4" y1="3" x2="20" y2="22" gradientUnits="userSpaceOnUse">
      <stop offset="0" stop-color="#FDE68A"/>
      <stop offset=".5" stop-color="#F59E0B"/>
      <stop offset="1" stop-color="#D97706"/>
    </linearGradient>
    <linearGradient id="bagSide" x1="15" y1="6" x2="21" y2="21" gradientUnits="userSpaceOnUse">
      <stop offset="0" stop-color="#FBBF24"/>
      <stop offset="1" stop-color="#B45309"/>
    </linearGradient>
    <filter id="softShadow" x="1" y="2" width="22" height="21" color-interpolation-filters="sRGB" filterUnits="userSpaceOnUse">
      <feDropShadow dx="0" dy="1.2" stdDeviation="1" flood-color="#0F172A" flood-opacity=".2"/>
    </filter>
  </defs>
  <ellipse cx="12" cy="21" rx="7.7" ry="1.1" fill="#0F172A" opacity=".14"/>
  <g filter="url(#softShadow)">
    <path d="M5.3 6.2h13.4c1 0 1.8.8 1.8 1.8v10.9c0 1.2-1 2.2-2.2 2.2H5.7c-1.2 0-2.2-1-2.2-2.2V8c0-1 .8-1.8 1.8-1.8Z" fill="url(#bag)"/>
    <path d="M16.6 6.2h2.1c1 0 1.8.8 1.8 1.8v10.9c0 1-.7 1.8-1.6 2.1L16.6 6.2Z" fill="url(#bagSide)" opacity=".82"/>
    <path d="M7.6 6.2c.4-2 2.1-3.4 4.4-3.4s4 1.4 4.4 3.4" stroke="#92400E" stroke-linecap="round" stroke-width="1.5"/>
    <path d="M8.1 9.6c.5 1.6 1.9 2.7 3.9 2.7s3.4-1.1 3.9-2.7" stroke="#FFF7ED" stroke-linecap="round" stroke-width="1.2" opacity=".9"/>
    <path d="M5 7.3c.2-.2.5-.3.8-.3H17" stroke="#FFFFFF" stroke-linecap="round" stroke-width="1" opacity=".55"/>
    <path d="M6.2 15.6h6.9" stroke="#FEF3C7" stroke-linecap="round" stroke-width="1" opacity=".55"/>
  </g>
</svg>
