<svg xmlns="http://www.w3.org/2000/svg" width="24" height="24" viewBox="0 0 24 24" fill="none" class="icon icon-utensils-3d">
  <defs>
    <linearGradient id="metal" x1="4" y1="2" x2="20" y2="22" gradientUnits="userSpaceOnUse">
      <stop offset="0" stop-color="#F8FAFC"/>
      <stop offset=".5" stop-color="#CBD5E1"/>
      <stop offset="1" stop-color="#64748B"/>
    </linearGradient>
    <linearGradient id="handle" x1="6" y1="10" x2="19" y2="22" gradientUnits="userSpaceOnUse">
      <stop offset="0" stop-color="#38BDF8"/>
      <stop offset="1" stop-color="#2563EB"/>
    </linearGradient>
    <filter id="softShadow" x="1" y="1" width="22" height="22" color-interpolation-filters="sRGB" filterUnits="userSpaceOnUse">
      <feDropShadow dx="0" dy="1.2" stdDeviation="1" flood-color="#0F172A" flood-opacity=".2"/>
    </filter>
  </defs>
  <ellipse cx="12" cy="21" rx="7.2" ry="1.1" fill="#0F172A" opacity=".13"/>
  <g filter="url(#softShadow)">
    <path d="M4.1 2.5c.4 0 .7.3.7.7v5.4h1.4V3.2c0-.4.3-.7.7-.7s.7.3.7.7v5.4H9V3.2c0-.4.3-.7.7-.7s.7.3.7.7v5.6c0 1.5-1.1 2.8-2.5 3.1v8.5c0 .6-.5 1-1 1s-1-.4-1-1v-8.5c-1.4-.3-2.5-1.6-2.5-3.1V3.2c0-.4.3-.7.7-.7Z" fill="url(#metal)"/>
    <path d="M5.9 12h2v8.4c0 .6-.5 1-1 1s-1-.4-1-1V12Z" fill="url(#handle)" opacity=".92"/>
    <path d="M20.5 2.7c-3 0-5.3 2.4-5.3 5.3v5.1c0 1 .8 1.8 1.8 1.8h1.4v5.5c0 .6.5 1 1 1s1-.4 1-1V2.7Z" fill="url(#metal)"/>
    <path d="M18.5 15h2v5.4c0 .6-.5 1-1 1s-1-.4-1-1V15Z" fill="url(#handle)" opacity=".92"/>
    <path d="M16.8 7.6c.2-1.3 1-2.3 2.2-2.8" stroke="#FFFFFF" stroke-linecap="round" stroke-width="1" opacity=".65"/>
    <path d="M4.4 3.4v5.1" stroke="#FFFFFF" stroke-linecap="round" stroke-width=".75" opacity=".55"/>
  </g>
</svg>
